<svg width="132" height="35" viewBox="0 0 132 35" fill="none" xmlns="http://www.w3.org/2000/svg">
<path d="M0.96875 34V1.1875H18.0312V7.75H7.57812V14.4062H13.625V21.0156H7.57812V27.3906H18.0312V34H0.96875Z" fill="#147EFB"/>
<path d="M25.55 26.5938L31.5031 24.4844C31.5031 25.2656 31.7219 25.9531 32.1594 26.5469C32.5969 27.1406 33.0344 27.5312 33.4719 27.7188L34.1281 28.0469V34.1406C31.4719 34.1406 29.2062 32.9844 27.3312 30.6719C26.175 29.2031 25.5812 27.8438 25.55 26.5938ZM25.925 10.1875C25.925 6.75 27.3937 4.17187 30.3312 2.45312C31.675 1.64062 32.9406 1.21875 34.1281 1.1875V7.375C33.3469 7.59375 32.7687 8.15625 32.3937 9.0625C32.2687 9.34375 32.2062 9.64063 32.2062 9.95312C32.2062 11.2344 33.1594 12.3281 35.0656 13.2344C35.4719 13.4219 36.1281 13.7031 37.0344 14.0781C38.5344 14.6719 39.5969 15.1562 40.2219 15.5312C42.7531 17.0312 44.4406 18.5625 45.2844 20.125C45.9094 21.3438 46.2219 22.7031 46.2219 24.2031C46.2219 27.0469 45.1437 29.4844 42.9875 31.5156C41.1437 33.2656 39.05 34.1406 36.7062 34.1406V28.0469C37.925 27.8906 38.7844 27.25 39.2844 26.125C39.5031 25.625 39.6125 25.0781 39.6125 24.4844C39.6125 22.8906 38.425 21.5781 36.05 20.5469C35.6125 20.3594 34.925 20.0938 33.9875 19.75C32.8937 19.375 32.1281 19.0781 31.6906 18.8594C29.0031 17.5781 27.2844 15.9219 26.5344 13.8906C26.1281 12.7969 25.925 11.5625 25.925 10.1875ZM36.7062 7.375V1.1875C39.3312 1.1875 41.5344 2.29687 43.3156 4.51562C44.3469 5.82812 44.8781 7.01563 44.9094 8.07812L38.8156 10.0938C38.8156 8.78125 38.175 7.89062 36.8937 7.42188C36.7687 7.39063 36.7062 7.375 36.7062 7.375ZM53.8344 34V1.1875H60.4437V14.2656H62.2719V20.7344H60.4437V34H53.8344ZM64.85 20.7344V14.2656H66.6781V1.1875H73.2875V34H66.6781V20.7344H64.85ZM81.7438 24.8594V9.4375C81.7438 7.78125 82.4469 6.09375 83.8531 4.375C85.7281 2.125 88.1031 0.984375 90.9781 0.953125V7.5625C89.6969 7.59375 88.8531 8.3125 88.4469 9.71875C88.3844 9.9375 88.3531 10.0938 88.3531 10.1875V24.8594C88.3531 26.1406 89.0563 27.0156 90.4625 27.4844C90.6813 27.5469 90.8375 27.5781 90.9313 27.5781V34.2344C89.15 34.2344 87.3688 33.5938 85.5875 32.3125C83.0563 30.4375 81.775 27.9531 81.7438 24.8594ZM93.5094 34.2344V27.5781C94.0094 27.5781 94.5719 27.3125 95.1969 26.7812C95.7906 26.25 96.1031 25.6094 96.1344 24.8594V10.1875C96.1344 9.625 95.8688 9.03125 95.3375 8.40625C94.8375 7.875 94.2281 7.59375 93.5094 7.5625V0.953125C96.6656 0.953125 99.1969 2.3125 101.103 5.03125C102.197 6.59375 102.744 8.0625 102.744 9.4375V24.8594C102.744 28.3281 101.197 30.9844 98.1031 32.8281C96.4781 33.7656 94.9469 34.2344 93.5094 34.2344ZM111.294 34V1.1875H117.903V34H111.294ZM120.434 19.0469V12.5781H121.981C123.325 12.5781 124.106 11.9844 124.325 10.7969C124.356 10.6094 124.372 10.4062 124.372 10.1875C124.184 8.65625 123.387 7.82812 121.981 7.70312H120.434V1.1875H122.169C128.012 1.40625 130.981 4.34375 131.075 10C131.075 14.1875 129.872 16.8906 127.466 18.1094C126.122 18.7656 124.356 19.0781 122.169 19.0469C122.075 19.0469 121.497 19.0469 120.434 19.0469Z" fill="black"/>
</svg>
