<svg width="179" height="37" viewBox="0 0 179 37" fill="none" xmlns="http://www.w3.org/2000/svg">
<path d="M0.648 2.4H22.056V8.256H7.368V15.312H21.096V21.024H7.368V30.144H22.056V36H0.648V2.4Z" fill="#147EFB"/>
<path d="M34.3879 19.2C34.3879 21.408 34.8839 23.328 35.8759 24.96C36.8679 26.592 38.1799 27.856 39.8119 28.752C41.4439 29.616 43.2199 30.048 45.1399 30.048C47.5079 30.048 49.5239 29.6 51.1879 28.704C52.8839 27.808 54.2919 26.72 55.4119 25.44V33.216C54.0359 34.304 52.5479 35.152 50.9479 35.76C49.3479 36.368 47.3159 36.672 44.8519 36.672C42.2599 36.672 39.8599 36.256 37.6519 35.424C35.4759 34.56 33.5879 33.36 31.9879 31.824C30.3879 30.288 29.1399 28.448 28.2439 26.304C27.3479 24.16 26.8999 21.792 26.8999 19.2C26.8999 16.608 27.3479 14.24 28.2439 12.096C29.1399 9.952 30.3879 8.112 31.9879 6.576C33.5879 5.04 35.4759 3.856 37.6519 3.024C39.8599 2.16 42.2599 1.728 44.8519 1.728C47.3159 1.728 49.3479 2.032 50.9479 2.64C52.5479 3.216 54.0359 4.064 55.4119 5.184V12.96C54.2919 11.648 52.8839 10.56 51.1879 9.696C49.5239 8.8 47.5079 8.352 45.1399 8.352C43.2199 8.352 41.4439 8.8 39.8119 9.696C38.1799 10.56 36.8679 11.808 35.8759 13.44C34.8839 15.04 34.3879 16.96 34.3879 19.2ZM60.2749 19.2C60.2749 16.64 60.7229 14.304 61.6189 12.192C62.5149 10.048 63.7629 8.208 65.3629 6.672C66.9949 5.104 68.8829 3.888 71.0269 3.024C73.1709 2.16 75.5069 1.728 78.0349 1.728C80.5949 1.728 82.9469 2.16 85.0909 3.024C87.2349 3.888 89.1069 5.104 90.7069 6.672C92.3389 8.208 93.5869 10.048 94.4509 12.192C95.3469 14.304 95.7949 16.64 95.7949 19.2C95.7949 21.728 95.3469 24.08 94.4509 26.256C93.5869 28.4 92.3549 30.272 90.7549 31.872C89.1869 33.44 87.3149 34.672 85.1389 35.568C82.9949 36.432 80.6269 36.864 78.0349 36.864C75.4429 36.864 73.0589 36.432 70.8829 35.568C68.7389 34.672 66.8669 33.44 65.2669 31.872C63.6989 30.272 62.4669 28.4 61.5709 26.256C60.7069 24.08 60.2749 21.728 60.2749 19.2ZM67.5709 19.2C67.5709 21.344 68.0029 23.248 68.8669 24.912C69.7629 26.576 70.9949 27.888 72.5629 28.848C74.1629 29.776 75.9869 30.24 78.0349 30.24C80.1149 30.24 81.9389 29.776 83.5069 28.848C85.0749 27.888 86.2909 26.576 87.1549 24.912C88.0509 23.248 88.4989 21.344 88.4989 19.2C88.4989 17.056 88.0669 15.152 87.2029 13.488C86.3389 11.824 85.1229 10.528 83.5549 9.6C81.9869 8.64 80.1469 8.16 78.0349 8.16C75.9869 8.16 74.1629 8.64 72.5629 9.6C70.9949 10.528 69.7629 11.824 68.8669 13.488C68.0029 15.152 67.5709 17.056 67.5709 19.2ZM108.589 17.232L106.381 36H99.1811L104.173 0.719999L118.285 22.368L132.301 0.719999L137.389 36H130.141L127.981 17.232L118.285 32.88L108.589 17.232ZM150.167 17.232L147.959 36H140.759L145.751 0.719999L159.863 22.368L173.879 0.719999L178.967 36H171.719L169.559 17.232L159.863 32.88L150.167 17.232Z" fill="black"/>
</svg>
